<svg xmlns="http://www.w3.org/2000/svg" viewBox="0 0 512 512" enable-background="new 0 0 512 512"><path fill="#181616" d="M256 0C114.7 0 0 114.7 0 256c0 113 73.3 209 175 242.8 12.8 2.4 17.5-5.6 17.5-12.4 0-6.1-.3-22.1-.4-43.6-71.2 15.5-86.2-34.2-86.2-34.2-11.6-29.6-28.4-37.5-28.4-37.5-23.2-15.9 1.8-15.6 1.8-15.6 25.7 1.9 39.2 26.4 39.2 26.4 22.8 39.1 59.9 27.9 74.5 21.4 2.2-16.6 9-27.9 16.3-34.2-56.7-6.4-116.6-28.4-116.6-126.5 0-28 10-50.8 26.4-68.6-2.6-6.5-11.5-32.6 2.5-67.7 0 0 21.5-6.9 70.4 26.2 20.4-5.8 42.2-8.5 64.2-8.7 21.7.1 43.6 2.9 64.2 8.7 48.9-33.1 70.2-26.2 70.2-26.2 14 35.2 5.2 61.3 2.5 67.7 16.4 17.8 26.2 40.8 26.2 68.6 0 98.4-59.9 119.9-116.9 126.3 9.2 7.9 17.4 23.5 17.4 47.5 0 34.2-.3 61.8-.3 70.2 0 6.8 4.7 14.8 17.6 12.3 101.7-33.7 175-129.6 175-242.6C511.9 114.7 397.2 0 256 0z"/></svg>